<svg width="86" height="86" viewBox="0 0 86 86" fill="none" xmlns="http://www.w3.org/2000/svg">
<rect opacity="0.1" width="86" height="86" fill="#4A3AFF"/>
<path opacity="0.35" fill-rule="evenodd" clip-rule="evenodd" d="M35.3725 22.4611C36.8199 19.693 40.133 17.6221 43.8668 17.6221C47.6007 17.6221 50.9162 19.6905 52.3611 22.4611C55.3421 21.5257 59.1469 22.4053 61.7908 25.0466C64.4321 27.688 65.3117 31.4928 64.3763 34.4763C67.1444 35.9237 69.2153 39.2367 69.2153 42.9706C69.2153 46.7044 67.1469 50.0175 64.3763 51.4649C65.3117 54.4459 64.4321 58.2507 61.7908 60.8945C59.1494 63.5358 55.3446 64.4154 52.3611 63.4801C50.9137 66.2481 47.6007 68.3191 43.8668 68.3191C40.133 68.3191 36.8199 66.2507 35.3725 63.4801C32.3916 64.4154 28.5842 63.5358 25.9429 60.8945C23.3016 58.2532 22.422 54.4459 23.3573 51.4649C20.5893 50.0175 18.5183 46.7044 18.5183 42.9706C18.5183 39.2367 20.5867 35.9212 23.3573 34.4763C22.422 31.4953 23.3016 27.6905 25.9429 25.0466C28.5842 22.4053 32.3916 21.5283 35.3725 22.4611Z" fill="#4A3AFF"/>
<path d="M40.4652 53.1401C39.8163 53.1401 39.1673 52.8917 38.673 52.3974L31.0685 44.7928C30.0774 43.8017 30.0774 42.1997 31.0685 41.2086C32.0596 40.2174 33.6616 40.2174 34.6528 41.2086L40.4652 47.021L51.3473 36.1389C52.3384 35.1477 53.9404 35.1477 54.9316 36.1389C55.9227 37.13 55.9227 38.732 54.9316 39.7231L42.2573 52.3974C41.763 52.8917 41.1141 53.1401 40.4652 53.1401Z" fill="#4A3AFF"/>
</svg>
