<svg width="86" height="86" viewBox="0 0 86 86" fill="none" xmlns="http://www.w3.org/2000/svg">
<rect opacity="0.1" width="86" height="86" fill="#FFD600"/>
<path d="M63.4274 32.5716L62.4309 31.643C61.4888 30.766 61.144 29.4193 61.5485 28.1948L61.9775 26.8996C62.5884 25.0561 61.4806 23.0876 59.5882 22.6532L58.2605 22.3464C57.0061 22.0558 56.0341 21.0648 55.7734 19.8023L55.4965 18.4691C55.1028 16.5685 53.1587 15.4173 51.3043 15.9848L50.001 16.3839C48.7683 16.7613 47.4325 16.3866 46.5745 15.4255L45.6676 14.4073C44.3752 12.9574 42.119 12.933 40.794 14.353L39.8654 15.3494C38.9884 16.2916 37.6417 16.6364 36.4172 16.2319L35.122 15.8029C33.2784 15.192 31.31 16.2997 30.8755 18.1922L30.5687 19.5199C30.2782 20.7743 29.2845 21.7463 28.0246 22.007L26.6888 22.2866C24.7882 22.6803 23.637 24.6244 24.2044 26.4788L24.6036 27.7821C24.981 29.0147 24.6063 30.3506 23.6451 31.2086L22.6269 32.1154C21.1771 33.4078 21.1526 35.6641 22.5726 36.9891L23.5691 37.9177C24.5113 38.7947 24.8561 40.1414 24.4515 41.3659L24.0225 42.661C23.4116 44.5046 24.5194 46.4731 26.4119 46.9075L27.7396 47.2143C28.994 47.5049 29.966 48.4986 30.2266 49.7584L30.5036 51.0916C30.8973 52.9922 32.8413 54.1434 34.6958 53.5759L35.999 53.1768C37.2317 52.7994 38.5675 53.1741 39.4255 54.1352L40.3324 55.1534C41.6248 56.6033 43.8811 56.6277 45.2061 55.2077L46.1346 54.2113C47.0116 53.2691 48.3584 52.9243 49.5829 53.3288L50.878 53.7578C52.7216 54.3687 54.6901 53.261 55.1245 51.3685L55.4313 50.0408C55.7218 48.7864 56.7156 47.8144 57.9754 47.5537L59.3112 47.2768C61.2118 46.8831 62.3631 44.9391 61.7956 43.0846L61.3965 41.7813C61.0191 40.5487 61.3937 39.2128 62.3549 38.3548L63.3731 37.448C64.823 36.1529 64.8474 33.8939 63.4274 32.5716ZM42.7326 48.3547C35.2361 48.2705 29.2247 42.1235 29.3089 34.6269C29.3931 27.1304 35.5402 21.1191 43.0367 21.2033C50.5332 21.2874 56.5445 27.4345 56.4603 34.931C56.3762 42.4275 50.2291 48.4389 42.7326 48.3547Z" fill="#FFB800"/>
<path opacity="0.35" d="M42.8845 48.3536C50.3821 48.3536 56.4602 42.2755 56.4602 34.7779C56.4602 27.2802 50.3821 21.2021 42.8845 21.2021C35.3868 21.2021 29.3088 27.2802 29.3088 34.7779C29.3088 42.2755 35.3868 48.3536 42.8845 48.3536Z" fill="#FFB800"/>
<path opacity="0.35" d="M55.2519 43.063C53.1016 47.8308 48.2957 51.1324 42.7324 51.0699C37.1691 51.0075 32.4366 47.5973 30.3948 42.7833L29.4934 42.7725L29.192 69.704C29.1676 71.9793 31.785 73.2744 33.5797 71.8734L37.6904 68.6586C40.6906 66.3127 44.9181 66.3589 47.8668 68.7727L51.9042 72.077C53.6663 73.5187 56.3136 72.2833 56.338 70.0053L56.6394 43.0738L55.2519 43.063Z" fill="#FFB800"/>
</svg>
