<svg width="252" height="252" viewBox="0 0 252 252" fill="none" xmlns="http://www.w3.org/2000/svg">
<rect width="252" height="252" fill="white"/>
<rect x="73.3608" y="133.311" width="105.278" height="15.4775" rx="7.73877" fill="#EFF0F7"/>
<path d="M37.8417 168.072C36.078 155.427 37.0551 142.551 40.7066 130.317C44.3582 118.083 50.5988 106.778 59.0049 97.1687C67.411 87.5594 77.786 79.8709 89.4256 74.6249C101.065 69.3789 113.697 66.6983 126.464 66.7649C139.231 66.8315 151.835 69.6438 163.419 75.0109C175.003 80.378 185.297 88.1743 193.603 97.8708C201.908 107.567 208.031 118.937 211.554 131.208C215.078 143.48 215.921 156.365 214.025 168.991" stroke="#EFF0F7" stroke-width="15.72" stroke-linecap="round"/>
<path d="M37.8417 168.072C35.3698 150.35 38.2966 132.294 46.2404 116.26C54.1843 100.226 66.7763 86.958 82.3736 78.1878C97.971 69.4177 115.85 65.5521 133.677 67.0953C151.504 68.6386 168.453 75.5191 182.311 86.8393" stroke="#FFD600" stroke-width="15.72" stroke-linecap="round"/>
<rect x="92.8809" y="160.385" width="66.2379" height="17.4968" rx="8.7484" fill="#EFF0F7"/>
</svg>
