<svg width="253" height="287" viewBox="0 0 253 287" fill="none" xmlns="http://www.w3.org/2000/svg">
<rect width="253" height="287" fill="white"/>
<ellipse cx="35.2032" cy="226.523" rx="8.79302" ry="8.79328" fill="#4A3AFF"/>
<rect opacity="0.5" x="48.7891" y="223.103" width="27.6548" height="6.83923" rx="3.41962" fill="#DCDDEB"/>
<ellipse cx="110.276" cy="226.523" rx="8.79302" ry="8.79328" fill="#FF6262"/>
<rect opacity="0.5" x="123.862" y="223.103" width="27.6548" height="6.83923" rx="3.41962" fill="#DCDDEB"/>
<ellipse cx="185.35" cy="226.523" rx="8.79302" ry="8.79328" fill="#FFD600"/>
<rect opacity="0.5" x="198.936" y="223.103" width="27.6548" height="6.83923" rx="3.41962" fill="#DCDDEB"/>
<rect x="39.4097" y="95.667" width="11.6121" height="95.6146" rx="5.80603" fill="#4A3AFF"/>
<rect x="66.5044" y="55.5078" width="11.6121" height="135.773" rx="5.80603" fill="#FF6262"/>
<rect x="93.5996" y="118.615" width="11.6121" height="72.6671" rx="5.80603" fill="#FFD600"/>
<rect x="120.694" y="51.6836" width="11.6121" height="139.597" rx="5.80603" fill="#4A3AFF"/>
<rect x="147.789" y="128.176" width="11.6121" height="63.1056" rx="5.80603" fill="#FF6262"/>
<rect x="174.884" y="72.7207" width="11.6121" height="118.562" rx="5.80603" fill="#FFD600"/>
<rect x="201.978" y="55.5078" width="11.6121" height="135.773" rx="5.80603" fill="#4A3AFF"/>
</svg>
