<svg width="86" height="86" viewBox="0 0 86 86" fill="none" xmlns="http://www.w3.org/2000/svg">
<rect opacity="0.1" width="86" height="86" fill="#FF6262"/>
<path opacity="0.35" d="M53.7522 61.6217C55.5718 60.5713 57.6726 60.4803 59.4923 61.1833C61.0058 61.7664 62.7427 61.2826 63.7725 60.0295C65.6086 57.7922 67.0891 55.2489 68.1271 52.4906C68.7226 50.9108 68.1602 49.1781 66.8699 48.0904C65.4225 46.8663 64.5044 45.0467 64.5044 43.0038C64.5044 40.9568 65.4225 39.1413 66.8699 37.9172C68.1561 36.8254 68.7226 35.0927 68.1271 33.5171C67.085 30.7587 65.6086 28.2154 63.7725 25.9781C62.7427 24.7209 61.01 24.2412 59.4923 24.8243C57.6726 25.5273 55.576 25.4363 53.7522 24.3859C51.9243 23.3314 50.7954 21.549 50.4976 19.6136C50.2536 18.0339 49.0047 16.7684 47.425 16.4996C45.9858 16.2473 44.5094 16.1191 43 16.1191C41.4906 16.1191 40.0142 16.2473 38.5751 16.4913C36.9994 16.7601 35.7464 18.0215 35.5024 19.6053C35.2046 21.5366 34.0757 23.319 32.2478 24.3777C30.4282 25.4281 28.3274 25.5191 26.5078 24.816C24.9942 24.2329 23.2573 24.7168 22.2276 25.9698C20.3914 28.2071 18.9109 30.7504 17.8729 33.5088C17.2774 35.0885 17.8398 36.8213 19.1301 37.9089C20.5775 39.1372 21.4956 40.9526 21.4956 42.9997C21.4956 45.0467 20.5775 46.8622 19.1301 48.0863C17.844 49.1781 17.2774 50.9108 17.8729 52.4864C18.915 55.2448 20.3914 57.7881 22.2276 60.0254C23.2573 61.2826 24.99 61.7623 26.5078 61.1792C28.3274 60.4762 30.424 60.5671 32.2478 61.6176C34.0757 62.6721 35.2046 64.4545 35.5024 66.3899C35.7464 67.9696 36.9953 69.2351 38.5751 69.5039C40.0142 69.752 41.4906 69.8802 43 69.8802C44.5094 69.8802 45.9858 69.752 47.425 69.508C49.0006 69.2392 50.2536 67.9779 50.4976 66.394C50.7954 64.4628 51.9243 62.6762 53.7522 61.6217Z" fill="#FF6262"/>
<path d="M43 32.6611C37.2889 32.6611 32.6613 37.2887 32.6613 42.9998C32.6613 48.7109 37.2889 53.3385 43 53.3385C48.7111 53.3385 53.3387 48.7109 53.3387 42.9998C53.3387 37.2887 48.7111 32.6611 43 32.6611Z" fill="#FF6262"/>
</svg>
