<svg width="124" height="124" viewBox="0 0 124 124" fill="none" xmlns="http://www.w3.org/2000/svg">
<g clip-path="url(#clip0_1053:38436)">
<rect width="124" height="124" fill="white"/>
<rect opacity="0.1" width="124.032" height="124.032" fill="#4A3AFF"/>
<path d="M62.0134 28.7559C52.8666 28.7559 45.3828 36.2396 45.3828 45.3864V52.0386H52.035V45.3864C52.035 39.8983 56.5253 35.4081 62.0134 35.4081C67.5014 35.4081 71.9917 39.8983 71.9917 45.3864V52.0386H78.6439V45.3864C78.6439 36.2396 71.1602 28.7559 62.0134 28.7559Z" fill="#4A3AFF"/>
<path opacity="0.3" d="M81.9718 95.2785H42.0585C38.3997 95.2785 35.4062 92.285 35.4062 88.6262V58.6913C35.4062 55.0326 38.3997 52.0391 42.0585 52.0391H81.9718C85.6305 52.0391 88.624 55.0326 88.624 58.6913V88.6262C88.624 92.285 85.6305 95.2785 81.9718 95.2785Z" fill="#4A3AFF"/>
<path d="M62.0165 68.6689C60.6933 68.6689 59.4243 69.1946 58.4886 70.1302C57.553 71.0659 57.0273 72.3349 57.0273 73.6581C57.0273 74.9813 57.553 76.2503 58.4886 77.186C59.4243 78.1216 60.6933 78.6473 62.0165 78.6473C63.3397 78.6473 64.6087 78.1216 65.5444 77.186C66.48 76.2503 67.0057 74.9813 67.0057 73.6581C67.0057 72.3349 66.48 71.0659 65.5444 70.1302C64.6087 69.1946 63.3397 68.6689 62.0165 68.6689Z" fill="#4A3AFF"/>
</g>
<defs>
<clipPath id="clip0_1053:38436">
<rect width="124" height="124" fill="white"/>
</clipPath>
</defs>
</svg>
