<svg width="86" height="86" viewBox="0 0 86 86" fill="none" xmlns="http://www.w3.org/2000/svg">
<rect width="86" height="86" fill="white"/>
<path opacity="0.35" d="M58.9436 55.5265H27.0558C23.2816 55.5265 20.2227 52.4676 20.2227 48.6934V30.4718C20.2227 26.6976 23.2816 23.6387 27.0558 23.6387H58.9436C62.7178 23.6387 65.7768 26.6976 65.7768 30.4718V48.6934C65.7768 52.4676 62.7178 55.5265 58.9436 55.5265Z" fill="#FFB800"/>
<path d="M64.6383 55.5273C64.2374 55.5273 21.7627 55.5273 21.3619 55.5273C19.4759 55.5273 17.9453 57.058 17.9453 58.9439C17.9453 60.8298 19.4759 62.3605 21.3619 62.3605C21.7627 62.3605 64.2374 62.3605 64.6383 62.3605C66.5242 62.3605 68.0548 60.8298 68.0548 58.9439C68.0548 57.058 66.5242 55.5273 64.6383 55.5273Z" fill="#FFB800"/>
<rect opacity="0.1" width="86" height="86" fill="#FFD600"/>
</svg>
