<svg width="86" height="86" viewBox="0 0 86 86" fill="none" xmlns="http://www.w3.org/2000/svg">
<path d="M50.771 41.0235L40.0755 33.8924C39.345 33.4068 38.4048 33.3583 37.6367 33.7732C36.8642 34.1881 36.3809 34.9937 36.3809 35.8699V50.1321C36.3809 51.0105 36.8642 51.8139 37.6367 52.2288C37.9876 52.4164 38.3739 52.5091 38.7579 52.5091C39.2192 52.5091 39.6782 52.3745 40.0755 52.1096L50.771 44.9786C51.4332 44.5371 51.8304 43.7956 51.8304 43.001C51.8304 42.2065 51.4332 41.4649 50.771 41.0235Z" fill="#FFB800"/>
<path opacity="0.35" d="M43.0025 65.0723C55.1918 65.0723 65.0733 55.1908 65.0733 43.0015C65.0733 30.8121 55.1918 20.9307 43.0025 20.9307C30.8131 20.9307 20.9316 30.8121 20.9316 43.0015C20.9316 55.1908 30.8131 65.0723 43.0025 65.0723Z" fill="#FFB800"/>
<rect opacity="0.1" y="0.000976562" width="86" height="86" fill="#FFD600"/>
</svg>
