<svg width="87" height="86" viewBox="0 0 87 86" fill="none" xmlns="http://www.w3.org/2000/svg">
<path d="M62.3119 56.5081C61.7232 55.9194 58.3284 52.5247 56.5664 50.7627C55.0916 53.1052 53.1081 55.0887 50.7656 56.5635C52.5276 58.3255 55.9224 61.7202 56.511 62.3089C58.113 63.9109 60.7099 63.9109 62.3119 62.3089C63.9138 60.7069 63.9138 58.1101 62.3119 56.5081Z" fill="#4A3AFF"/>
<path opacity="0.35" d="M40.9491 59.409C51.1448 59.409 59.41 51.1438 59.41 40.9481C59.41 30.7525 51.1448 22.4873 40.9491 22.4873C30.7535 22.4873 22.4883 30.7525 22.4883 40.9481C22.4883 51.1438 30.7535 59.409 40.9491 59.409Z" fill="#4A3AFF"/>
<rect opacity="0.1" x="0.353241" y="0.351288" width="85.2974" height="85.2974" fill="#4A3AFF" stroke="#4A3AFF" stroke-width="0.702576"/>
</svg>
