<svg width="83" height="83" viewBox="0 0 83 83" fill="none" xmlns="http://www.w3.org/2000/svg">
<g clip-path="url(#clip0_1029:38475)">
<rect width="83" height="83" fill="white"/>
<rect opacity="0.15" width="83.3848" height="83.3848" fill="#FF6262"/>
<path opacity="0.35" d="M58.4361 60.8241H24.9573C20.9948 60.8241 17.7832 57.6125 17.7832 53.65V29.7365C17.7832 25.7741 20.9948 22.5625 24.9573 22.5625H58.4361C62.3986 22.5625 65.6102 25.7741 65.6102 29.7365V53.65C65.6102 57.6125 62.3986 60.8241 58.4361 60.8241Z" fill="#FF6262"/>
<path d="M36.7753 41.1313L17.7832 29.7365C17.7832 25.7741 20.9948 22.5625 24.9573 22.5625H58.4361C62.3986 22.5625 65.6102 25.7741 65.6102 29.7365L46.6181 41.1313C43.5883 42.9488 39.8051 42.9488 36.7753 41.1313Z" fill="#FF6262"/>
</g>
<defs>
<clipPath id="clip0_1029:38475">
<rect width="83" height="83" fill="white"/>
</clipPath>
</defs>
</svg>
