<svg width="86" height="86" viewBox="0 0 86 86" fill="none" xmlns="http://www.w3.org/2000/svg">
<path d="M59.5954 25.4277C58.8417 25.4277 27.1587 25.4277 26.4051 25.4277C24.7886 25.4277 23.4766 26.7397 23.4766 28.3563C23.4766 29.9728 24.7886 31.2848 26.4051 31.2848C27.1587 31.2848 58.8417 31.2848 59.5954 31.2848C61.2119 31.2848 62.5239 29.9728 62.5239 28.3563C62.5239 26.7397 61.2119 25.4277 59.5954 25.4277Z" fill="#4A3AFF"/>
<path opacity="0.35" d="M27.3809 31.2852L34.427 39.7409C36.1821 41.8455 37.1427 44.5007 37.1427 47.2399V57.7905C37.1427 59.6999 38.523 61.3282 40.4051 61.6425L45.4461 62.482C47.2325 62.7807 48.8569 61.4043 48.8569 59.5945V47.2419C48.8569 44.5007 49.8175 41.8475 51.5726 39.7428L58.6187 31.2852H27.3809Z" fill="#4A3AFF"/>
<rect opacity="0.1" x="0.351288" y="0.351288" width="85.2974" height="85.2974" fill="#6A35FF" stroke="#4A3AFF" stroke-width="0.702576"/>
</svg>
