<svg width="83" height="83" viewBox="0 0 83 83" fill="none" xmlns="http://www.w3.org/2000/svg">
<g clip-path="url(#clip0_1029:38483)">
<rect width="83" height="83" fill="white"/>
<rect opacity="0.15" width="83.3848" height="83.3848" fill="#FFD600"/>
<path opacity="0.35" d="M50.211 20.7275H26.7853C23.2565 20.7275 20.3965 23.5876 20.3965 27.1164V46.2828C20.3965 49.737 23.1437 52.5353 26.5723 52.6503L28.1823 57.591C28.6807 59.1201 30.6271 59.5652 31.743 58.4067L37.2544 52.6716H50.211C53.7397 52.6716 56.5998 49.8116 56.5998 46.2828V27.1164C56.5998 23.5876 53.7397 20.7275 50.211 20.7275Z" fill="#FFD600"/>
<path d="M56.6005 24.9863H56.2087C56.4472 25.655 56.6005 26.3642 56.6005 27.1159V46.2824C56.6005 49.8111 53.7405 52.6712 50.2117 52.6712H37.2552L33.1621 56.9283C33.1664 56.9283 33.1706 56.9304 33.1749 56.9304H46.1314L51.645 62.6654C52.7587 63.8239 54.7073 63.3789 55.2057 61.8498L56.8156 56.9091C60.2422 56.7941 62.9894 53.9958 62.9894 50.5416V31.3751C62.9894 27.8464 60.1293 24.9863 56.6005 24.9863Z" fill="#FFD600"/>
</g>
<defs>
<clipPath id="clip0_1029:38483">
<rect width="83" height="83" fill="white"/>
</clipPath>
</defs>
</svg>
