<svg width="86" height="86" viewBox="0 0 86 86" fill="none" xmlns="http://www.w3.org/2000/svg">
<rect width="86" height="86" fill="white"/>
<path opacity="0.35" d="M55.9365 24.8877V32.6501C55.9365 34.0784 54.7799 35.2376 53.349 35.2376H45.5866V43.0001C45.5866 44.4284 44.43 45.5875 42.9991 45.5875H35.2366V53.35C35.2366 54.7783 34.08 55.9375 32.6492 55.9375H24.8867V66.2874H58.524C62.8114 66.2874 66.2864 62.8124 66.2864 58.525V24.8877H55.9365Z" fill="#FF6262"/>
<path d="M24.8859 66.2876H22.2984C20.8701 66.2876 19.7109 65.1284 19.7109 63.7001V55.9376C19.7109 53.0785 22.0267 50.7627 24.8859 50.7627H30.0609V45.5877C30.0609 42.7285 32.3767 40.4127 35.2358 40.4127H40.4108V35.2378C40.4108 32.3786 42.7266 30.0628 45.5858 30.0628H50.7607V24.8879C50.7607 22.0287 53.0765 19.7129 55.9357 19.7129H63.6981C65.1264 19.7129 66.2856 20.8721 66.2856 22.3004V24.8879H55.9357V35.2378H45.5858V45.5877H35.2358V55.9376H24.8859V66.2876Z" fill="#FF6262"/>
<rect opacity="0.1" width="86" height="86" fill="#FF6262"/>
</svg>
