<svg width="86" height="86" viewBox="0 0 86 86" fill="none" xmlns="http://www.w3.org/2000/svg">
<rect opacity="0.1" width="86" height="86" fill="#FF6262"/>
<path opacity="0.35" d="M32.0441 38.1305C36.7503 38.1305 40.5654 34.3154 40.5654 29.6092C40.5654 24.903 36.7503 21.0879 32.0441 21.0879C27.3379 21.0879 23.5228 24.903 23.5228 29.6092C23.5228 34.3154 27.3379 38.1305 32.0441 38.1305Z" fill="#FF6262"/>
<path opacity="0.35" d="M53.956 38.1305C58.6622 38.1305 62.4773 34.3154 62.4773 29.6092C62.4773 24.903 58.6622 21.0879 53.956 21.0879C49.2498 21.0879 45.4347 24.903 45.4347 29.6092C45.4347 34.3154 49.2498 38.1305 53.956 38.1305Z" fill="#FF6262"/>
<path opacity="0.35" d="M39.348 47.8691H58.8253C63.5241 47.8691 67.3466 51.6915 67.3466 56.3904C67.3466 61.0893 63.5241 64.9117 58.8253 64.9117H39.348V47.8691Z" fill="#FF6262"/>
<path d="M47.8694 56.3904C47.8694 61.0893 44.047 64.9117 39.3481 64.9117H27.1748C24.8375 64.9117 22.695 63.9622 21.1612 62.404C19.603 60.8702 18.6535 58.7277 18.6535 56.3904C18.6535 51.6915 22.4759 47.8691 27.1748 47.8691H39.3481C41.6853 47.8691 43.8278 48.8187 45.3617 50.3768C46.9198 51.9107 47.8694 54.0532 47.8694 56.3904Z" fill="#FF6262"/>
</svg>
