<svg width="87" height="86" viewBox="0 0 87 86" fill="none" xmlns="http://www.w3.org/2000/svg">
<path opacity="0.35" d="M56.1405 61.7701C54.0684 61.7701 52.3867 60.0884 52.3867 58.0163V27.9862C52.3867 25.9141 54.0684 24.2324 56.1405 24.2324C58.2126 24.2324 59.8943 25.9141 59.8943 27.9862V58.0163C59.8943 60.0884 58.2126 61.7701 56.1405 61.7701Z" fill="#FFB800"/>
<path d="M43.0018 61.7695C40.9297 61.7695 39.248 60.0878 39.248 58.0158V39.2469C39.248 37.1749 40.9297 35.4932 43.0018 35.4932C45.0739 35.4932 46.7556 37.1749 46.7556 39.2469V58.0158C46.7556 60.0878 45.0739 61.7695 43.0018 61.7695Z" fill="#FFB800"/>
<path d="M29.8651 61.77C27.793 61.77 26.1113 60.0883 26.1113 58.0162V50.5087C26.1113 48.4366 27.793 46.7549 29.8651 46.7549C31.9372 46.7549 33.6189 48.4366 33.6189 50.5087V58.0162C33.6189 60.0883 31.9372 61.77 29.8651 61.77Z" fill="#FFB800"/>
<rect opacity="0.1" x="0.00195312" width="86" height="86" fill="#FFD600"/>
</svg>
