<svg width="83" height="83" viewBox="0 0 83 83" fill="none" xmlns="http://www.w3.org/2000/svg">
<g clip-path="url(#clip0_1029:38474)">
<rect width="83" height="83" fill="white"/>
<rect opacity="0.15" width="83.3848" height="83.3848" fill="#4A3AFF"/>
<path opacity="0.35" d="M20.6018 31.0932C21.1271 35.0044 23.1832 43.9933 31.2895 52.0996C39.3958 60.2059 48.3824 62.2621 52.2959 62.7874C55.1305 63.4002 58.2041 62.6217 60.407 60.4189C63.852 56.9738 51.3731 44.4949 47.9281 47.94L45.7299 50.1381L33.251 37.6592L35.4468 35.4611C38.8919 32.016 26.413 19.5371 22.9679 22.9822C20.765 25.185 19.9866 28.2586 20.6018 31.0932Z" fill="#4A3AFF"/>
<path d="M22.9805 22.9735L35.457 35.45C38.895 32.0026 38.895 26.4233 35.4499 22.9782C32.0096 19.5379 26.4279 19.5355 22.9805 22.9735Z" fill="#4A3AFF"/>
<path d="M47.9375 47.9305L60.414 60.407C63.852 56.962 63.852 51.3803 60.4069 47.9352C56.9642 44.4949 51.3849 44.4925 47.9375 47.9305Z" fill="#4A3AFF"/>
</g>
<defs>
<clipPath id="clip0_1029:38474">
<rect width="83" height="83" fill="white"/>
</clipPath>
</defs>
</svg>
