<svg width="502" height="557" viewBox="0 0 502 557" fill="none" xmlns="http://www.w3.org/2000/svg">
<rect width="502" height="557" fill="white"/>
<circle cx="31" cy="28" r="7" fill="#FF6262"/>
<circle cx="52.999" cy="28" r="7" fill="#FFD600"/>
<circle cx="74.999" cy="28" r="7" fill="#4A3AFF"/>
<rect x="24.5" y="58.5" width="453" height="198.439" rx="12.5" fill="white" stroke="#EFF0F7"/>
<rect x="24.5" y="274.305" width="252.458" height="253.733" rx="12.5" fill="white" stroke="#EFF0F7"/>
<circle cx="51.6883" cy="494.149" r="6.58285" fill="#4A3AFF"/>
<rect opacity="0.5" x="61.8594" y="491.589" width="51.9505" height="5.12" rx="2.56" fill="#DCDDEB"/>
<circle cx="136.392" cy="494.149" r="6.58285" fill="#FFD600"/>
<rect opacity="0.5" x="146.563" y="491.589" width="28.9416" height="5.12" rx="2.56" fill="#DCDDEB"/>
<path d="M48.6328 461.428C57.5875 416.655 88.5191 378.847 162.07 393.183C235.621 407.52 190.496 298.738 252.839 295.176" stroke="#4A3AFF" stroke-width="6" stroke-linecap="round"/>
<path d="M42.4453 448.883C51.3999 404.11 63.6507 369.061 132.441 397.038C201.231 425.016 169.252 293.957 258.605 348.073" stroke="#FFD600" stroke-width="6" stroke-linecap="round"/>
<rect x="293.958" y="274.305" width="184" height="253.733" rx="12.5" fill="white" stroke="#EFF0F7"/>
<circle cx="328.977" cy="440.79" r="8.51211" fill="#4A3AFF"/>
<rect opacity="0.5" x="342.129" y="437.479" width="89.7878" height="6.62054" rx="3.31027" fill="#DCDDEB"/>
<circle cx="328.977" cy="465.815" r="8.51211" fill="#FF6262"/>
<rect opacity="0.5" x="342.128" y="462.504" width="50.0208" height="6.62054" rx="3.31027" fill="#DCDDEB"/>
<circle cx="328.977" cy="490.839" r="8.51211" fill="#FFD600"/>
<rect opacity="0.5" x="344.386" y="487.528" width="107.065" height="6.62054" rx="3.31027" fill="#DCDDEB"/>
<path d="M331.981 375.177C328.53 363.472 328.978 350.962 333.257 339.533C337.537 328.104 345.415 318.376 355.705 311.815C365.995 305.255 378.139 302.217 390.306 303.159C402.473 304.102 414.004 308.975 423.16 317.042" stroke="#4A3AFF" stroke-width="12.72" stroke-linecap="round"/>
<path d="M423.133 317.018C429.152 322.315 433.97 328.836 437.264 336.146C440.558 343.455 442.252 351.385 442.232 359.402" stroke="#FFD600" stroke-width="12.72" stroke-linecap="round"/>
<path d="M442.232 359.265C442.232 372.798 437.356 385.877 428.496 396.106C419.637 406.336 407.388 413.03 393.994 414.962C380.6 416.895 366.959 413.936 355.569 406.628C344.179 399.32 335.805 388.152 331.98 375.172" stroke="#FF6262" stroke-width="12.72" stroke-linecap="round"/>
<rect x="51.9004" y="122.521" width="9.79171" height="74.8909" rx="4.89586" fill="#4A3AFF"/>
<rect x="74.748" y="91.0654" width="9.79171" height="106.345" rx="4.89586" fill="#FF6262"/>
<rect x="97.5957" y="140.494" width="9.79171" height="56.9171" rx="4.89586" fill="#FFD600"/>
<rect x="120.442" y="88.0703" width="9.79171" height="109.341" rx="4.89586" fill="#4A3AFF"/>
<rect x="143.29" y="147.983" width="9.79171" height="49.428" rx="4.89586" fill="#FF6262"/>
<rect x="166.137" y="104.547" width="9.79171" height="92.8648" rx="4.89586" fill="#FFD600"/>
<rect x="188.984" y="91.0654" width="9.79171" height="106.345" rx="4.89586" fill="#4A3AFF"/>
<rect x="211.832" y="133.005" width="9.79171" height="64.4062" rx="4.89586" fill="#FF6262"/>
<rect x="234.679" y="91.0654" width="9.79171" height="106.345" rx="4.89586" fill="#FFD600"/>
<rect x="257.526" y="159.966" width="9.79171" height="37.4455" rx="4.89586" fill="#4A3AFF"/>
<rect x="280.374" y="97.0566" width="9.79171" height="100.354" rx="4.89586" fill="#FF6262"/>
<rect x="303.221" y="88.0703" width="9.79171" height="109.341" rx="4.89586" fill="#FFD600"/>
<rect x="326.068" y="119.524" width="9.79171" height="77.8866" rx="4.89586" fill="#4A3AFF"/>
<rect x="348.916" y="91.0654" width="9.79171" height="106.345" rx="4.89586" fill="#FF6262"/>
<rect x="371.763" y="140.494" width="9.79171" height="56.9171" rx="4.89586" fill="#FFD600"/>
<rect x="394.61" y="91.0654" width="9.79171" height="106.345" rx="4.89586" fill="#4A3AFF"/>
<rect x="417.458" y="116.529" width="9.79171" height="80.8822" rx="4.89586" fill="#FF6262"/>
<rect x="440.305" y="91.0654" width="9.79171" height="106.345" rx="4.89586" fill="#FFD600"/>
<circle cx="56.7967" cy="220.786" r="6.58285" fill="#4A3AFF"/>
<rect opacity="0.5" x="66.9678" y="218.226" width="51.9505" height="5.12" rx="2.56" fill="#DCDDEB"/>
<circle cx="141.501" cy="220.786" r="6.58285" fill="#FF6262"/>
<rect opacity="0.5" x="151.672" y="218.226" width="28.9416" height="5.12" rx="2.56" fill="#DCDDEB"/>
<circle cx="203.196" cy="220.786" r="6.58285" fill="#FFD600"/>
<rect opacity="0.5" x="214.673" y="218.226" width="61.9472" height="5.12" rx="2.56" fill="#DCDDEB"/>
</svg>
