<svg width="35" height="32" viewBox="0 0 35 32" fill="none" xmlns="http://www.w3.org/2000/svg">
<g clip-path="url(#clip0)">
<path opacity="0.35" d="M0.152786 8.03404C0.547467 10.9728 2.09241 17.7268 8.1833 23.8177C14.2742 29.9086 21.0264 31.4536 23.967 31.8483C26.0969 32.3087 28.4063 31.7238 30.0614 30.0686C32.65 27.4801 23.2736 18.1037 20.6851 20.6923L19.0335 22.3439L9.65714 12.9676L11.307 11.3159C13.8955 8.7274 4.51917 -0.648943 1.93063 1.9396C0.275457 3.59477 -0.309453 5.90419 0.152786 8.03404Z" fill="#FF6262"/>
<path d="M1.93652 1.93629L11.3111 11.3109C13.8943 8.72054 13.8943 4.52839 11.3058 1.93985C8.72077 -0.645134 4.52684 -0.646912 1.93652 1.93629Z" fill="#FF6262"/>
<path d="M20.6885 20.6902L30.063 30.0648C32.6462 27.4762 32.6462 23.2823 30.0577 20.6938C27.4709 18.1088 23.2788 18.107 20.6885 20.6902Z" fill="#FF6262"/>
</g>
<defs>
<clipPath id="clip0">
<rect width="35" height="32" fill="white"/>
</clipPath>
</defs>
</svg>
