<svg width="25" height="15" viewBox="0 0 25 15" fill="none" xmlns="http://www.w3.org/2000/svg">
<path fill-rule="evenodd" clip-rule="evenodd" d="M16.75 2.58301C16.1977 2.58301 15.75 2.13529 15.75 1.58301C15.75 1.03072 16.1977 0.583008 16.75 0.583008H23.5C24.0523 0.583008 24.5 1.03072 24.5 1.58301V8.33301C24.5 8.88529 24.0523 9.33301 23.5 9.33301C22.9477 9.33301 22.5 8.88529 22.5 8.33301V3.99722L16.2683 10.2289C16.0362 10.4612 15.7605 10.6455 15.4571 10.7712C15.1537 10.897 14.8284 10.9617 14.5 10.9617C14.1716 10.9617 13.8463 10.897 13.5429 10.7712C13.2395 10.6455 12.9638 10.4612 12.7317 10.2289L9.60389 7.10111L9.60367 7.10089C9.55723 7.05442 9.5021 7.01757 9.44142 6.99242C9.38073 6.96727 9.31569 6.95433 9.25 6.95433C9.18431 6.95433 9.11927 6.96727 9.05858 6.99242C8.9979 7.01757 8.94277 7.05442 8.89633 7.10089L8.89611 7.10111L1.70711 14.2901C1.31658 14.6806 0.683417 14.6806 0.292893 14.2901C-0.0976311 13.8996 -0.0976311 13.2664 0.292893 12.8759L7.48167 5.68713C7.71383 5.45481 7.9895 5.27052 8.29292 5.14478C8.59634 5.01905 8.92156 4.95433 9.25 4.95433C9.57844 4.95433 9.90366 5.01905 10.2071 5.14478C10.5105 5.27052 10.7862 5.45481 11.0183 5.68713L14.1461 8.8149L14.1463 8.81513C14.1928 8.86159 14.2479 8.89845 14.3086 8.9236C14.3693 8.94875 14.4343 8.96169 14.5 8.96169C14.5657 8.96169 14.6307 8.94875 14.6914 8.9236C14.7521 8.89845 14.8072 8.86159 14.8537 8.81513L14.8539 8.8149L21.0858 2.58301H16.75Z" fill="#14142B"/>
</svg>
